<?xml version="1.0" encoding="UTF-8"?>
<svg width="650px" height="226px" viewBox="0 0 650 226" version="1.1" xmlns="http://www.w3.org/2000/svg" xmlns:xlink="http://www.w3.org/1999/xlink">
    <!-- Generator: Sketch 50.2 (55047) - http://www.bohemiancoding.com/sketch -->
    <title>logo4</title>
    <desc>Created with Sketch.</desc>
    <defs></defs>
    <g id="Page-1" stroke="none" stroke-width="1" fill="none" fill-rule="evenodd">
        <g id="logo4" fill="#FFFFFF" fill-rule="nonzero">
            <path d="M258.3,147.8 C259.6,149.1 261.1,150.1 262.7,150.8 C264.4,151.5 266.2,151.9 268.1,151.9 L312.1,151.9 C314,151.9 315.8,151.5 317.5,150.8 C319.2,150.1 320.7,149.1 321.9,147.8 C323.2,146.5 324.2,145 324.9,143.4 C325.6,141.7 326,139.9 326,138 L326,123.3 C326,121.4 325.6,119.6 324.9,117.9 C324.2,116.2 323.2,114.7 321.9,113.5 C320.6,112.2 319.1,111.2 317.5,110.5 C315.8,109.8 314,109.4 312.1,109.4 L268.1,109.4 C267.9,109.4 267.8,109.3 267.6,109.2 C267.5,109.1 267.4,108.9 267.4,108.7 L267.4,94 C267.4,93.8 267.5,93.7 267.6,93.5 C267.7,93.4 267.9,93.3 268.1,93.3 L312.1,93.3 C312.3,93.3 312.4,93.3 312.6,93.5 C312.8,93.7 312.8,93.8 312.8,94 L312.8,99.5 L326,99.5 L326,94 C326,92.1 325.6,90.3 324.9,88.6 C324.2,86.9 323.2,85.4 321.9,84.2 C320.6,82.9 319.1,81.9 317.5,81.2 C315.8,80.5 314,80.1 312.1,80.1 L268.1,80.1 C266.2,80.1 264.4,80.5 262.7,81.2 C261,81.9 259.5,82.9 258.3,84.2 C257,85.5 256,87 255.3,88.6 C254.6,90.3 254.2,92.1 254.2,94 L254.2,108.7 C254.2,110.6 254.6,112.4 255.3,114.1 C256,115.8 257,117.3 258.3,118.5 C259.6,119.8 261.1,120.8 262.7,121.5 C264.4,122.2 266.2,122.6 268.1,122.6 L312.1,122.6 C312.3,122.6 312.4,122.6 312.6,122.8 C312.8,123 312.8,123.1 312.8,123.3 L312.8,138 C312.8,138.2 312.7,138.3 312.6,138.5 C312.5,138.6 312.3,138.7 312.1,138.7 L268.1,138.7 C267.9,138.7 267.8,138.6 267.6,138.5 C267.5,138.4 267.4,138.2 267.4,138 L267.4,132.5 L254.2,132.5 L254.2,138 C254.2,139.9 254.6,141.7 255.3,143.4 C256.1,145.1 257.1,146.6 258.3,147.8 Z" id="Shape"></path>
            <path d="M397,150.8 C398.7,150.1 400.2,149.1 401.4,147.8 C402.7,146.5 403.7,145 404.4,143.4 C405.1,141.7 405.5,139.9 405.5,138 L405.5,122.6 C405.5,120.6 405.1,118.6 404.3,116.8 C403.6,115.4 402.8,114.1 401.7,113 C402.3,111.3 402.7,109.7 402.7,108 L402.7,94 C402.7,92.1 402.3,90.3 401.6,88.6 C400.9,86.9 399.9,85.4 398.6,84.2 C397.3,82.9 395.8,81.9 394.2,81.2 C392.5,80.5 390.7,80.1 388.8,80.1 L333.8,80.1 L333.8,151.9 L391.7,151.9 C393.5,151.9 395.3,151.5 397,150.8 Z M346.9,94 C346.9,93.8 347,93.7 347.1,93.5 C347.2,93.4 347.4,93.3 347.6,93.3 L388.7,93.3 C388.9,93.3 389,93.3 389.2,93.5 C389.4,93.7 389.4,93.8 389.4,94 L389.4,108.1 C389.4,108.3 389.3,108.4 389.2,108.6 C389.1,108.7 388.9,108.8 388.7,108.8 L347.6,108.8 C347.4,108.8 347.3,108.7 347.1,108.6 C347,108.5 346.9,108.3 346.9,108.1 L346.9,94 Z M347.1,138.5 C347,138.4 346.9,138.2 346.9,138 L346.9,122.6 C346.9,122.4 347,122.3 347.1,122.1 C347.2,122 347.4,121.9 347.6,121.9 L391.6,121.9 C391.8,121.9 391.9,121.9 392.1,122.1 C392.3,122.3 392.3,122.4 392.3,122.6 L392.3,138 C392.3,138.2 392.2,138.3 392.1,138.5 C392,138.6 391.8,138.7 391.6,138.7 L347.6,138.7 C347.4,138.7 347.3,138.6 347.1,138.5 Z" id="Shape"></path>
            <polygon id="Shape" points="426.2 99.3 453.5 131.8 480.8 99.3 480.8 151.9 494 151.9 494 80.1 479.5 80.1 453.5 111.2 427.4 80.1 413 80.1 413 151.9 426.2 151.9"></polygon>
            <path d="M505.4,147.8 C506.7,149.1 508.2,150.1 509.8,150.8 C511.5,151.5 513.3,151.9 515.2,151.9 L559.2,151.9 C561.1,151.9 562.9,151.5 564.6,150.8 C566.3,150.1 567.8,149.1 569,147.8 C570.3,146.5 571.3,145 572,143.4 C572.7,141.7 573.1,139.9 573.1,138 L573.1,123.3 C573.1,121.4 572.7,119.6 572,117.9 C571.3,116.2 570.3,114.7 569,113.5 C567.7,112.2 566.2,111.2 564.6,110.5 C562.9,109.8 561.1,109.4 559.2,109.4 L515.2,109.4 C515,109.4 514.9,109.3 514.7,109.2 C514.6,109.1 514.5,108.9 514.5,108.7 L514.5,94 C514.5,93.8 514.6,93.7 514.7,93.5 C514.8,93.4 515,93.3 515.2,93.3 L559.2,93.3 C559.4,93.3 559.5,93.3 559.7,93.5 C559.9,93.7 559.9,93.8 559.9,94 L559.9,99.5 L573.1,99.5 L573.1,94 C573.1,92.1 572.7,90.3 572,88.6 C571.3,86.9 570.3,85.4 569,84.2 C567.7,82.9 566.2,81.9 564.6,81.2 C562.9,80.5 561.1,80.1 559.2,80.1 L515.2,80.1 C513.3,80.1 511.5,80.5 509.8,81.2 C508.1,81.9 506.6,82.9 505.4,84.2 C504.1,85.5 503.1,87 502.4,88.6 C501.7,90.3 501.3,92.1 501.3,94 L501.3,108.7 C501.3,110.6 501.7,112.4 502.4,114.1 C503.1,115.8 504.1,117.3 505.4,118.5 C506.7,119.8 508.2,120.8 509.8,121.5 C511.5,122.2 513.3,122.6 515.2,122.6 L559.2,122.6 C559.4,122.6 559.5,122.6 559.7,122.8 C559.9,123 559.9,123.1 559.9,123.3 L559.9,138 C559.9,138.2 559.8,138.3 559.7,138.5 C559.6,138.6 559.4,138.7 559.2,138.7 L515.2,138.7 C515,138.7 514.9,138.6 514.7,138.5 C514.6,138.4 514.5,138.2 514.5,138 L514.5,132.5 L501.3,132.5 L501.3,138 C501.3,139.9 501.7,141.7 502.4,143.4 C503.1,145.1 504.1,146.6 505.4,147.8 Z" id="Shape"></path>
            <polygon id="Shape" points="649.8 80.1 635.4 80.1 610.8 109.4 593.8 109.4 593.8 80.1 580.6 80.1 580.6 151.9 593.8 151.9 593.8 122.6 610.8 122.6 635.4 151.9 649.8 151.9 649.8 148.5 622.6 116 649.8 83.5"></polygon>
            <path d="M200.1,148.3 L199.8,143.4 L190.3,143.4 C190,146.1 189.4,148.8 188.5,151.2 C186.4,156.6 183,161.5 178.6,165.3 C172,171 164.3,173.8 155.7,173.8 C141.5,173.8 127.4,163.9 123.6,151.3 C127.6,149.8 129.2,146.6 129.6,142 C135.9,162.4 155.7,168.3 170,161.6 C177.1,158.3 183,151.6 185.4,143.4 C187.8,135.3 186.8,125.9 180.1,116.9 C180.3,117.2 182.2,117.5 182.6,117.7 C183.5,118.2 184.2,118.9 184.8,119.6 C186.7,121.9 187.7,124.8 188.6,127.5 C188.6,127.5 188.6,127.6 188.6,127.6 L233.5,127.6 L233.5,151.7 L246.7,151.7 L246.7,94 C246.7,92.1 246.3,90.3 245.6,88.6 C244.9,86.9 243.9,85.4 242.6,84.2 C241.3,82.9 239.8,81.9 238.2,81.2 C236.5,80.5 234.7,80.1 232.8,80.1 L218.1,80.1 L226.5,50.6 L192,50.6 L206.3,0.6 L174.4,0.6 L160.1,50.6 L99.2,50.6 L113.5,0.6 L81.6,0.6 L67.3,50.6 L35.7,50.6 L26.6,82.5 L58.2,82.5 L40.8,143.4 L9.2,143.4 L0.1,175.3 L31.7,175.3 L17.4,225.3 L49.3,225.3 L63.6,175.3 L124.5,175.3 L110.2,225.3 L142.1,225.3 L156.4,175.3 L191,175.3 L649.8,175.3 L649.8,160.1 L196.1,160.1 L200.1,148.3 Z M188.2,94 C188.2,93.8 188.3,93.7 188.4,93.5 C188.5,93.4 188.7,93.3 188.9,93.3 L232.9,93.3 C233.1,93.3 233.2,93.3 233.4,93.5 C233.6,93.7 233.6,93.8 233.6,94 L233.6,114.6 L188.3,114.6 L188.3,94 L188.2,94 Z M160.2,148.5 C159,149.1 157.8,149.4 156.5,149.6 C149.3,150.3 143.5,145.6 142.9,138.6 C142.6,134.9 144.8,131.5 148,131.3 C146.2,134.8 145.2,138.4 147.4,141.8 C148.8,143.8 150.8,145.8 153.1,146.7 C156,147.9 158.7,147.6 161.1,146 C163.3,144.5 165.2,141.9 166.6,138.2 C167,142.5 164.2,146.6 160.2,148.5 Z M173.8,105.7 C174.3,106 174.9,106.3 175.5,106.6 C176.9,107.3 178.5,107.8 180,108.5 C178.2,111.3 175.5,113.1 172.8,113.8 C170.1,114.5 167.2,114.2 164.8,112.6 C165.5,112.2 166.1,111.8 167,111.3 C159.6,108.6 152.6,109.3 145.6,112.5 C143.9,109.7 142.3,107 140.6,104.1 C145.1,101.9 149.9,101.1 154.8,101 C161.6,100.8 168,102.1 173.8,105.7 Z M133.1,76.5 C135.2,75.5 137.1,74 139.4,72.4 C139.1,76.7 138.8,80.5 138.5,84.3 C138.7,84.3 138.9,84.3 139.1,84.3 C139.8,81 140.5,77.6 141.4,74.3 C141.6,73.6 142.5,73 143.1,72.4 C143.5,73.1 144.2,73.8 144.3,74.6 C145.3,80.5 144.9,86.4 143.5,92.2 C142.9,94.7 140.3,95.2 138,93.8 C132,90.1 129.2,84 126.2,78.7 C128.6,77.9 131,77.5 133.1,76.5 Z M81.2,30 C83.4,28.6 85.9,31.6 86.8,33.1 C87.5,34.2 87.8,35.6 88.4,37.2 C91.9,37 93.6,39.9 95.1,43.1 C96.6,46.4 98.1,49.7 99.9,52.8 C100.8,54.2 102.3,55.7 103.9,56.1 C110,57.8 114.3,61.4 117.4,66.8 C122.9,76.5 128.7,86.1 134.4,95.7 C135.2,97 137.3,97.7 137.7,99 C142.8,113.2 152.5,124.9 159.3,138.2 C159.4,138.4 159.4,138.6 159.4,139 C155.9,138.6 152.9,138.2 150.9,134.5 C145.8,125.1 140.4,115.8 135,106.5 C134.5,105.7 133.3,105.3 132.8,104.5 C132,103.3 131.5,101.9 131,100.6 C130.8,100 130.9,99.2 130.6,98.6 C129.8,97 128.7,95.4 127.9,93.8 C126.8,91.4 126,88.9 125,86.5 C124.5,85.2 123.8,83.9 123.1,82.5 C118.9,85.2 121.7,87.9 122.6,90.5 C120,91.2 118.2,90.4 117.1,88.3 C116,86.3 116.3,84.4 118.5,82.7 L118.5,87.2 C119.2,84.9 119.8,83.1 120.6,80.9 C118.5,77.2 116,72.9 113.7,68.6 C110.6,62.9 106.1,59.4 99.5,58.9 C99,58.9 98.6,58.7 98.1,58.6 C97.9,58.6 97.8,58.4 97.2,58.1 C97.7,57.1 98.3,56.1 99.1,54.6 C97.3,50.5 95.4,45.8 93.1,41.3 C92.4,40 90.6,39.2 89.3,38.1 C86.9,42.5 84.8,42.6 82.1,39.1 C81.1,37.8 80.4,36.3 80.2,34.7 C79.9,33.5 80.1,30.7 81.2,30 Z M90.1,98.5 C94.5,92.3 99.1,86.1 104.1,80.4 C107.4,76.7 112.2,77.3 116.6,78.5 C117.5,78.7 118,80.2 118.6,81 C118.4,81.5 118.4,81.7 118.3,81.8 C116.5,83.3 114.7,84.9 115.7,87.6 C116.7,90.4 119,91.5 121.7,91.6 C123.4,91.6 124.2,92.3 124.8,93.6 C125.8,95.7 126.9,97.7 128.5,100.7 C125.8,101 123.6,101.5 121.6,101.4 C117.1,101.1 112.6,100.1 108.1,100.1 C105.4,100.1 102.6,101.2 99.9,101.9 C97.9,102.5 96,103.6 93.9,103.8 C90.5,104.3 88.2,101.2 90.1,98.5 Z M93,106.6 C91.5,107.4 90,108.2 88.3,109.1 C88.6,107.7 88.9,106.4 89.2,105 C90.5,105.6 91.7,106.1 93,106.6 Z M73.4,55.9 C79.2,55.9 84.4,55.9 89.6,55.9 C89.6,55.6 89.6,55.4 89.7,55.1 C85.9,54.9 82,54.7 78.2,54.4 C78.2,54.2 78.2,54.1 78.2,53.9 C81.3,53.9 84.5,53.9 87.6,53.9 C88.4,53.9 89.6,53.8 90.1,53.3 C91.9,51.2 93.9,52.3 95.6,53.2 C96.2,53.5 95.8,55.6 95.8,56.8 C95.8,57.3 95.4,57.8 95.2,58.5 C93.6,58.5 92.1,58.5 90.6,58.5 C89.2,63.4 84.2,62.8 81.5,65.6 C81.2,65.2 80.9,64.8 80.7,64.4 C81.7,63.7 82.6,63 83.7,62.4 C84.8,61.8 86,61.7 87,61 C87.5,60.6 87.7,59.6 88,58.9 C87.4,58.7 86.7,58.2 86.1,58.3 C83.2,59 80.2,59.8 77.3,60.7 C75.5,61.2 73.5,63.2 72.1,61 C70.6,59 72.1,56.9 73.4,55.9 Z M84.6,101 C82.9,102 81.4,103 79.7,103.8 C75.3,105.8 72.6,104.3 71.8,99.6 C71.1,95.6 71.7,94.9 75.7,94.6 C80.7,94.2 80.7,94.2 82.9,98.5 C83.4,99.2 83.9,99.9 84.6,101 Z M70.2,94.7 C70.4,94.8 70.5,95 70.7,95.1 C70.9,97.1 71,99.1 71.4,101 C72.3,105.6 75.3,107.2 79.6,105.1 C81.7,104.1 83.5,102.7 85.5,101.5 C86.2,101.1 86.9,100.7 88.5,99.7 C88,101.3 87.9,102.5 87.3,103.1 C84.3,106.2 81.4,109.4 78,112.1 C74.7,114.7 70.8,113.5 69.8,109.7 C68.8,106 68.6,102.1 68.4,98.3 C68.2,97.1 69.5,95.9 70.2,94.7 Z M88.5,128.5 C89.4,129.1 90.5,129.5 91.6,129.7 C93.7,130.1 94.4,131.2 93.4,133.8 C89.1,132 84.9,130.3 80.3,128.4 C82.2,125.2 83.9,122.4 85.4,119.9 C87.6,122.2 89.7,124.4 91.9,126.6 C91.7,126.8 91.5,127.1 91.3,127.3 C90.1,126.9 89,126.6 87.8,126.2 C87.6,126.3 87.4,126.5 87.2,126.6 C87.7,127.2 88,128.1 88.5,128.5 Z M73.1,116.4 C76.9,113.8 80.9,111.2 85.1,108.3 C85.1,109.3 85.3,110.7 84.9,111.7 C83.1,115.6 81.2,119.5 79.2,123.3 C78.9,123.9 78,124.3 77.3,124.4 C77,124.4 76.6,123.4 76.3,122.8 C75.1,120.5 73.9,118.2 73.1,116.4 Z M74.1,120 C73.9,120.3 73.7,120.7 73.5,121 C71,120.6 69.7,124.2 66,122.4 C68.3,120.8 69.9,119.4 71.8,118.5 C72.2,118.3 73.3,119.4 74.1,120 Z M52.1,116.1 L52.1,111.7 C54.6,105 57.2,98.6 66,99.4 C66.3,103.2 66.6,106.8 66.9,110.8 C64.9,111.6 62.5,111.7 60.5,110.2 C58.2,108.4 56.8,109.4 55.6,111.4 C55,112.4 54.5,113.6 53.9,114.5 C53.5,115.1 52.8,115.5 52.1,116.1 Z M72.6,144.6 C59.6,147.7 55.6,140.1 54.1,129.6 C53.8,127.5 54.1,125.2 54.4,122.9 C55.4,126.2 57,128.8 60.3,130 C60.7,130.2 60.9,131.1 61.1,131.6 C61.5,132.6 61.7,133.8 62.1,134.7 C63.9,138.7 66.7,138.9 69.4,135.4 C69.7,135 69.9,134.7 70.3,134.2 C73.6,135.5 76.8,136.7 80.3,138.1 C78.4,141.5 76.2,143.8 72.6,144.6 Z M89.5,139.5 C79.6,135.7 69.8,131.8 60,127.8 C56.5,126.4 55.3,123.6 56.2,119.5 C55.7,119.9 55.3,120.2 54.3,121 C55.8,117.6 56.9,114.9 57.8,112.8 C61.9,113.5 65.5,114.1 69,114.8 C64.7,114.8 62.9,116.3 61.5,122.5 C71.1,126.7 80.5,131.1 90.1,135.1 C92.9,136.2 94.7,137.4 94.6,141 C92.8,140.4 91.1,140.1 89.5,139.5 Z M91.5,122 C91,122.2 89.3,120.6 88.9,119.5 C88.3,118 88,116.2 88.3,114.7 C88.6,113.2 89.4,111.3 90.6,110.5 C91.3,110.1 93.2,111.5 94.7,112.2 C94.5,111.6 94.3,110.7 94,109.6 C96,109.6 96.2,111.1 96.1,112.5 C95.9,114.7 95.9,117 95.1,119 C94.5,120.3 92.9,121.5 91.5,122 Z M113.6,140.6 C113.3,141.4 112.3,142.5 111.5,142.6 C107.7,143.2 103.9,143.9 100.1,143.7 C97.2,143.6 95.9,140.9 95.7,138.1 C95.3,128.7 95.4,119.3 97.8,110 C99.2,104.6 102.5,101.8 108.1,101.7 C111.8,101.7 115.5,102.2 119.1,102.4 C121.9,102.5 124.7,102.4 127.8,102.4 C128.4,105.3 126.7,107.3 123.3,107 C120.3,106.7 117.3,106.2 114.2,106 C112.4,105.9 110.5,106 108.7,106.1 C105.1,106.4 102.4,108.4 101.8,111.9 C100.7,118.1 100.1,124.5 99.4,130.8 C99.3,131.6 99.3,132.5 99.4,133.3 C99.7,135.6 98.6,138.8 101.3,139.7 C104.4,140.7 107.9,140.6 110.8,138.3 C111.4,137.8 112.5,137.8 113.4,137.6 C113.6,138.6 114,139.8 113.6,140.6 Z M113.1,114.5 C111.2,117.7 109.3,121.1 107.2,124.1 C106,125.8 104.2,127.1 102.7,128.6 C102.4,128.4 102,128.3 101.7,128.1 C102.4,123 102.9,117.8 103.9,112.8 C104.5,110 107,108.6 109.7,108.4 C113.3,108.1 117,108.3 120.9,108.3 C120.3,110.2 119.9,111.7 117.8,111.5 C115.6,111.5 114.2,112.8 113.1,114.5 Z M102,137.1 C101,134.7 101.4,133 103.9,131.4 C109.4,127.7 112.6,122 115.6,116.3 C116,115.5 116.4,114.8 116.9,113.8 C120.3,119 110.4,134.1 102,137.1 Z M108.7,136 C114.9,130.3 117.6,122.5 120.5,114.9 C120.8,115 121.2,115.2 121.5,115.3 C119.4,121.3 117.4,127.3 115.2,133.2 C114,136.1 111,135.4 108.7,136 Z M133.4,108.3 C135.1,111.3 136.8,114.2 138.4,117.2 C133,122.1 129.3,127.9 127.7,135 C127.3,137 127.1,139 126.9,141 C126.5,144.6 124.1,146.9 120.4,147.2 C116.3,136 120.6,117.4 133.4,108.3 Z" id="Shape"></path>
            <polygon id="Shape" points="172.2 207.6 174.9 207.6 174.9 197.3 180.6 197.3 180.6 207.6 183.3 207.6 183.3 195 172.2 195"></polygon>
            <polygon id="Shape" points="190.3 207.6 199 207.6 199 205.3 193 205.3 193 202.4 198 202.4 198 200.2 193 200.2 193 197.3 199 197.3 199 195 190.3 195"></polygon>
            <path d="M212.6,195 L206.1,195 L206.1,207.7 L208.8,207.7 L208.8,203.5 L212.6,203.5 C213.7,203.5 214.6,203.1 215.4,202.3 C216.2,201.5 216.5,200.5 216.5,199.2 C216.5,198 216.1,197 215.4,196.1 C214.7,195.4 213.7,195 212.6,195 Z M213.3,200.7 C213,201.1 212.6,201.2 212.1,201.2 L208.9,201.2 L208.9,197.3 L212.1,197.3 C212.6,197.3 213,197.5 213.3,197.8 C213.6,198.2 213.8,198.6 213.8,199.2 C213.8,199.9 213.7,200.3 213.3,200.7 Z" id="Shape"></path>
            <path d="M231.5,201.3 C232.7,201 233.4,199.9 233.4,198.3 C233.4,197.2 232.9,196.3 232.1,195.7 C231.3,195.2 230.3,194.9 229.2,194.9 L223.3,194.9 L223.3,207.6 L229.5,207.6 C230.6,207.6 231.7,207.3 232.5,206.8 C233.3,206.3 233.8,205.4 233.8,204.2 C233.8,203.4 233.6,202.7 233.2,202.1 C232.7,201.7 232.2,201.3 231.5,201.3 Z M226,196.8 L229.1,196.8 C229.6,196.8 230,197 230.3,197.3 C230.6,197.6 230.8,198 230.8,198.6 C230.8,199.1 230.6,199.5 230.3,199.8 C230,200.1 229.6,200.3 229.1,200.3 L226,200.3 L226,196.8 Z M230.5,205.2 C230.2,205.5 229.8,205.7 229.3,205.7 L226,205.7 L226,202.2 L229.3,202.2 C229.8,202.2 230.2,202.4 230.5,202.7 C230.8,203 231,203.4 231,204 C231,204.4 230.8,204.9 230.5,205.2 Z" id="Shape"></path>
            <path d="M244.5,195 L239.5,207.7 L242.3,207.7 L243.2,205.4 L248.8,205.4 L249.7,207.7 L252.5,207.7 L247.5,195 L244.5,195 Z M244.1,203 L246,197.8 L247.9,203 L244.1,203 Z" id="Shape"></path>
            <path d="M259.9,196.2 C259.1,197 258.8,198 258.8,199.3 C258.8,200.2 259,201 259.4,201.6 C259.8,202.3 260.3,202.8 261,203.1 L258.2,207.7 L261,207.7 L263.4,203.5 L266.3,203.5 L266.3,207.7 L269,207.7 L269,195 L262.5,195 C261.5,195 260.6,195.4 259.9,196.2 Z M266.4,197.3 L266.4,201.2 L263.2,201.2 C262.7,201.2 262.3,201 262,200.7 C261.7,200.3 261.5,199.9 261.5,199.3 C261.5,198.7 261.7,198.2 262,197.9 C262.3,197.6 262.7,197.4 263.2,197.4 L266.4,197.4 L266.4,197.3 Z" id="Shape"></path>
            <polygon id="Shape" points="292 201.9 287.9 195 284.9 195 284.9 207.6 287.6 207.6 287.6 199.3 291.2 205.6 292.7 205.6 296.3 199.3 296.3 207.6 299 207.6 299 195 296 195"></polygon>
            <path d="M314.6,195.3 C313.8,195 313,194.9 312.1,194.9 C311.2,194.9 310.4,195.1 309.6,195.3 C308,195.9 306.9,197 306.2,198.6 C305.9,199.4 305.7,200.3 305.7,201.3 C305.7,202.3 305.9,203.2 306.2,204 C306.8,205.6 308,206.7 309.6,207.3 C310.4,207.6 311.2,207.8 312.1,207.8 C313,207.8 313.8,207.6 314.6,207.3 C316.1,206.7 317.3,205.6 318,204 C318.3,203.2 318.5,202.3 318.5,201.3 C318.5,200.3 318.3,199.4 318,198.6 C317.3,197 316.2,195.9 314.6,195.3 Z M314.8,204.3 C314.1,205 313.2,205.4 312.2,205.4 C311.1,205.4 310.2,205 309.5,204.3 C308.8,203.6 308.5,202.6 308.5,201.4 C308.5,200.1 308.8,199.2 309.5,198.5 C310.2,197.8 311.1,197.4 312.2,197.4 C313.3,197.4 314.2,197.8 314.8,198.5 C315.5,199.2 315.8,200.2 315.8,201.4 C315.8,202.6 315.5,203.6 314.8,204.3 Z" id="Shape"></path>
            <path d="M327.1,198.8 C327.1,201.1 326.9,202.7 326.6,203.6 C326.2,204.7 325.6,205.2 324.7,205.1 L324.7,207.7 C326.5,208 327.7,207.2 328.4,205.5 C328.9,204.4 329.2,203.3 329.3,201.7 C329.4,200.9 329.4,200.2 329.5,199.5 C329.5,198.8 329.5,198.1 329.5,197.3 L333.8,197.3 L333.8,207.6 L336.5,207.6 L336.5,195 L327,195 C327.1,197.2 327.1,198.5 327.1,198.8 Z" id="Shape"></path>
            <path d="M352.2,195.3 C351.4,195 350.6,194.9 349.7,194.9 C348.8,194.9 348,195.1 347.2,195.3 C345.6,195.9 344.5,197 343.8,198.6 C343.5,199.4 343.3,200.3 343.3,201.3 C343.3,202.3 343.5,203.2 343.8,204 C344.4,205.6 345.6,206.7 347.2,207.3 C348,207.6 348.8,207.8 349.7,207.8 C350.6,207.8 351.4,207.6 352.2,207.3 C353.7,206.7 354.9,205.6 355.6,204 C355.9,203.2 356.1,202.3 356.1,201.3 C356.1,200.3 355.9,199.4 355.6,198.6 C354.9,197 353.7,195.9 352.2,195.3 Z M352.3,204.3 C351.6,205 350.7,205.4 349.7,205.4 C348.6,205.4 347.7,205 347,204.3 C346.3,203.6 346,202.6 346,201.4 C346,200.1 346.3,199.2 347,198.5 C347.7,197.8 348.6,197.4 349.7,197.4 C350.8,197.4 351.7,197.8 352.3,198.5 C353,199.2 353.3,200.2 353.3,201.4 C353.4,202.6 353,203.6 352.3,204.3 Z" id="Shape"></path>
            <path d="M373.5,195 L364.3,195 C364.3,197.2 364.3,199.1 364.2,200.6 C364.1,202.2 363.9,203.7 363.6,205.3 L362.3,205.3 L362.3,211.3 L365,211.3 L365,207.7 L372.5,207.7 L372.5,211.3 L375.2,211.3 L375.2,205.3 L373.6,205.3 L373.6,195 L373.5,195 Z M370.8,205.3 L366.2,205.3 C366.6,203.2 366.9,200.5 366.9,197.3 L370.7,197.3 L370.7,205.3 L370.8,205.3 Z" id="Shape"></path>
            <polygon id="Shape" points="382 207.6 390.7 207.6 390.7 205.3 384.7 205.3 384.7 202.4 389.7 202.4 389.7 200.2 384.7 200.2 384.7 197.3 390.7 197.3 390.7 195 382 195"></polygon>
            <polygon id="Shape" points="412.6 195 407.6 199.6 407.6 195 404.9 195 404.9 199.6 400 195 397.2 195 403.4 201.3 397.2 207.6 400 207.6 404.9 203 404.9 207.6 407.6 207.6 407.6 203 412.6 207.6 415.3 207.6 409.1 201.3 415.3 195"></polygon>
            <polygon id="Shape" points="430.2 200.1 424.5 200.1 424.5 195 421.8 195 421.8 207.6 424.5 207.6 424.5 202.5 430.2 202.5 430.2 207.6 432.9 207.6 432.9 195 430.2 195"></polygon>
            <path d="M444.1,195 L439.1,207.7 L441.9,207.7 L442.8,205.4 L448.4,205.4 L449.3,207.7 L452.1,207.7 L447.1,195 L444.1,195 Z M443.7,203 L445.6,197.8 L447.5,203 L443.7,203 Z" id="Shape"></path>
            <path d="M459.5,196.2 C458.7,197 458.4,198 458.4,199.3 C458.4,200.2 458.6,201 459,201.6 C459.4,202.3 459.9,202.8 460.6,203.1 L457.8,207.7 L460.6,207.7 L463,203.5 L465.9,203.5 L465.9,207.7 L468.6,207.7 L468.6,195 L462.1,195 C461.2,195 460.2,195.4 459.5,196.2 Z M466,197.3 L466,201.2 L462.8,201.2 C462.3,201.2 461.9,201 461.6,200.7 C461.3,200.3 461.1,199.9 461.1,199.3 C461.1,198.7 461.3,198.2 461.6,197.9 C461.9,197.6 462.3,197.4 462.8,197.4 L466,197.4 L466,197.3 Z" id="Shape"></path>
            <polygon id="Shape" points="491.6 201.9 487.5 195 484.5 195 484.5 207.6 487.2 207.6 487.2 199.3 490.8 205.6 492.4 205.6 495.9 199.3 495.9 207.6 498.6 207.6 498.6 195 495.6 195"></polygon>
            <path d="M514.2,195.3 C513.4,195 512.6,194.9 511.7,194.9 C510.8,194.9 510,195.1 509.2,195.3 C507.6,195.9 506.5,197 505.8,198.6 C505.5,199.4 505.3,200.3 505.3,201.3 C505.3,202.3 505.5,203.2 505.8,204 C506.4,205.6 507.6,206.7 509.2,207.3 C510,207.6 510.8,207.8 511.7,207.8 C512.6,207.8 513.4,207.6 514.2,207.3 C515.7,206.7 516.9,205.6 517.6,204 C517.9,203.2 518.1,202.3 518.1,201.3 C518.1,200.3 517.9,199.4 517.6,198.6 C517,197 515.8,195.9 514.2,195.3 Z M514.4,204.3 C513.7,205 512.8,205.4 511.8,205.4 C510.7,205.4 509.8,205 509.1,204.3 C508.4,203.6 508.1,202.6 508.1,201.4 C508.1,200.1 508.4,199.2 509.1,198.5 C509.8,197.8 510.7,197.4 511.8,197.4 C512.9,197.4 513.8,197.8 514.4,198.5 C515.1,199.2 515.4,200.2 515.4,201.4 C515.4,202.6 515.1,203.6 514.4,204.3 Z" id="Shape"></path>
            <polygon id="Shape" points="523.6 197.3 527.4 197.3 527.4 207.6 530.1 207.6 530.1 197.3 533.8 197.3 533.8 195 523.6 195"></polygon>
            <path d="M548.2,195.3 C547.4,195 546.6,194.9 545.7,194.9 C544.8,194.9 544,195.1 543.2,195.3 C541.6,195.9 540.5,197 539.8,198.6 C539.5,199.4 539.3,200.3 539.3,201.3 C539.3,202.3 539.5,203.2 539.8,204 C540.4,205.6 541.6,206.7 543.2,207.3 C544,207.6 544.8,207.8 545.7,207.8 C546.6,207.8 547.4,207.6 548.2,207.3 C549.7,206.7 550.9,205.6 551.6,204 C551.9,203.2 552.1,202.3 552.1,201.3 C552.1,200.3 551.9,199.4 551.6,198.6 C551,197 549.8,195.9 548.2,195.3 Z M548.4,204.3 C547.7,205 546.8,205.4 545.8,205.4 C544.7,205.4 543.8,205 543.1,204.3 C542.4,203.6 542.1,202.6 542.1,201.4 C542.1,200.1 542.4,199.2 543.1,198.5 C543.8,197.8 544.7,197.4 545.8,197.4 C546.9,197.4 547.8,197.8 548.4,198.5 C549.1,199.2 549.4,200.2 549.4,201.4 C549.4,202.6 549.1,203.6 548.4,204.3 Z" id="Shape"></path>
            <polygon id="Shape" points="572.7 205.3 568.3 205.3 568.3 195 565.6 195 565.6 205.3 561.2 205.3 561.2 195 558.5 195 558.5 207.6 575.4 207.6 575.4 195 572.7 195"></polygon>
            <polygon id="Shape" points="590.3 195 585.4 201 585.4 195 582.7 195 582.7 207.6 585.4 207.6 585.4 204.5 586.8 202.7 590.3 207.6 593.1 207.6 588.4 200.7 593.1 195"></polygon>
            <path d="M607.1,195.3 C606.3,195 605.5,194.9 604.6,194.9 C603.7,194.9 602.9,195.1 602.1,195.3 C600.5,195.9 599.4,197 598.7,198.6 C598.4,199.4 598.2,200.3 598.2,201.3 C598.2,202.3 598.4,203.2 598.7,204 C599.3,205.6 600.5,206.7 602.1,207.3 C602.9,207.6 603.7,207.8 604.6,207.8 C605.5,207.8 606.3,207.6 607.1,207.3 C608.6,206.7 609.8,205.6 610.5,204 C610.8,203.2 611,202.3 611,201.3 C611,200.3 610.8,199.4 610.5,198.6 C609.8,197 608.7,195.9 607.1,195.3 Z M607.3,204.3 C606.6,205 605.7,205.4 604.7,205.4 C603.6,205.4 602.7,205 602,204.3 C601.3,203.6 601,202.6 601,201.4 C601,200.1 601.3,199.2 602,198.5 C602.7,197.8 603.6,197.4 604.7,197.4 C605.8,197.4 606.7,197.8 607.3,198.5 C608,199.2 608.3,200.2 608.3,201.4 C608.3,202.6 607.9,203.6 607.3,204.3 Z" id="Shape"></path>
            <path d="M619.5,198.8 C619.5,201.1 619.3,202.7 619,203.6 C618.6,204.7 618,205.2 617.1,205.1 L617.1,207.7 C618.9,208 620.1,207.2 620.8,205.5 C621.3,204.4 621.6,203.3 621.7,201.7 C621.8,200.9 621.9,200.2 621.9,199.5 C621.9,198.8 621.9,198.1 621.9,197.3 L626.2,197.3 L626.2,207.6 L628.9,207.6 L628.9,195 L619.4,195 C619.5,197.2 619.5,198.5 619.5,198.8 Z" id="Shape"></path>
            <path d="M640.5,195 L635.5,207.7 L638.3,207.7 L639.2,205.4 L644.8,205.4 L645.7,207.7 L648.5,207.7 L643.5,195 L640.5,195 Z M640,203 L641.9,197.8 L643.8,203 L640,203 Z" id="Shape"></path>
        </g>
    </g>
</svg>